<?xml version="1.0" encoding="iso-8859-1"?>
<!-- Generator: Adobe Illustrator 19.0.0, SVG Export Plug-In . SVG Version: 6.00 Build 0)  -->
<svg version="1.1" id="Layer_1" xmlns="http://www.w3.org/2000/svg" xmlns:xlink="http://www.w3.org/1999/xlink" x="0px" y="0px"
	 viewBox="0 0 512 512" style="enable-background:new 0 0 512 512;" xml:space="preserve">
<path style="fill:#FF9811;" d="M301.176,45.176C301.176,20.226,280.949,0,256,0c-24.949,0-45.176,20.226-45.176,45.176
	c0,16.718,9.089,31.306,22.588,39.118v36.176h45.176V84.295C292.087,76.482,301.176,61.895,301.176,45.176z"/>
<path style="fill:#FF5023;" d="M256,0v120.471h22.588V84.295c13.499-7.813,22.588-22.398,22.588-39.118
	C301.176,20.226,280.949,0,256,0z"/>
<path style="fill:#50412E;" d="M361.412,481.882v-90.353c0-58.217-47.194-105.412-105.412-105.412s-105.412,47.194-105.412,105.412
	v90.353H361.412z"/>
<path style="fill:#2A2718;" d="M361.412,481.882v-90.353c0-58.217-47.194-105.412-105.412-105.412c0,73.788,0,195.765,0,195.765
	H361.412z"/>
<rect x="120.471" y="466.824" style="fill:#93C7EF;" width="271.059" height="45.176"/>
<rect x="256" y="466.824" style="fill:#5A8BB0;" width="135.529" height="45.176"/>
<rect x="195.765" y="376.471" style="fill:#FF9811;" width="120.471" height="45.176"/>
<rect x="256" y="376.471" style="fill:#FF5023;" width="60.235" height="45.176"/>
<path style="fill:#78B9EB;" d="M84.388,248.787c31.102,31.622,93.895,20.301,93.895,20.301s12.36-62.595-18.741-94.217
	c-31.102-31.622-93.895-20.301-93.895-20.301S53.286,217.163,84.388,248.787z"/>
<path style="fill:#3C5D76;" d="M427.612,248.787c-31.102,31.622-93.895,20.301-93.895,20.301s-12.36-62.595,18.741-94.217
	c31.102-31.622,93.895-20.301,93.895-20.301S458.714,217.163,427.612,248.787z"/>
<path style="fill:#93C7EF;" d="M376.471,225.882c0,0-53.936,120.471-120.471,120.471s-120.471-53.936-120.471-120.471
	S189.466,105.412,256,105.412S376.471,225.882,376.471,225.882z"/>
<path style="fill:#5A8BB0;" d="M256,105.412c66.534,0,120.471,53.936,120.471,120.471S322.534,346.353,256,346.353"/>
<circle style="fill:#1E2E3B;" cx="256" cy="173.176" r="22.588"/>
<circle style="fill:#3C5D76;" cx="203.294" cy="233.412" r="22.588"/>
<g>
	<circle style="fill:#1E2E3B;" cx="308.706" cy="233.412" r="22.588"/>
	<path style="fill:#1E2E3B;" d="M225.882,286.118c0,16.632,13.485,30.118,30.118,30.118l0,0c16.634,0,30.118-13.485,30.118-30.118
		H225.882z"/>
</g>
<g>
</g>
<g>
</g>
<g>
</g>
<g>
</g>
<g>
</g>
<g>
</g>
<g>
</g>
<g>
</g>
<g>
</g>
<g>
</g>
<g>
</g>
<g>
</g>
<g>
</g>
<g>
</g>
<g>
</g>
</svg>
