<?xml version="1.0" encoding="iso-8859-1"?>
<!-- Generator: Adobe Illustrator 19.0.0, SVG Export Plug-In . SVG Version: 6.00 Build 0)  -->
<svg version="1.1" id="Layer_1" xmlns="http://www.w3.org/2000/svg" xmlns:xlink="http://www.w3.org/1999/xlink" x="0px" y="0px"
	 viewBox="0 0 512 512" style="enable-background:new 0 0 512 512;" xml:space="preserve">
<path style="fill:#4B925E;" d="M301.176,45.176C301.176,20.226,280.949,0,256,0s-45.176,20.226-45.176,45.176
	c0,16.718,9.09,31.306,22.588,39.118v36.176h45.176V84.295C292.087,76.482,301.176,61.895,301.176,45.176z"/>
<path style="fill:#32623F;" d="M256,0v120.471h22.588V84.295c13.499-7.813,22.588-22.398,22.588-39.118
	C301.176,20.226,280.949,0,256,0z"/>
<path style="fill:#91DC5A;" d="M406.588,331.294v82.824c0,12.475-10.114,22.588-22.588,22.588s-22.588-10.114-22.588-22.588
	c0,0,0-184.267,0-203.294c0-60.235-47.194-105.412-105.412-105.412s-105.412,45.176-105.412,105.412c0,19.027,0,203.294,0,203.294
	c0,12.475-10.114,22.588-22.588,22.588s-22.588-10.114-22.588-22.588v-82.824H60.235v82.824c0,53.972,43.91,97.882,97.882,97.882
	h195.765c53.972,0,97.882-43.91,97.882-97.882v-82.824H406.588z"/>
<path style="fill:#64C37D;" d="M406.588,331.294v82.824c0,12.475-10.114,22.588-22.588,22.588s-22.588-10.114-22.588-22.588
	c0,0,0-184.267,0-203.294c0-60.235-47.194-105.412-105.412-105.412V512h97.882c53.972,0,97.882-43.91,97.882-97.882v-82.824H406.588
	z"/>
<path style="fill:#FFFFFF;" d="M256,150.588c-37.365,0-67.765,30.399-67.765,67.765s30.399,67.765,67.765,67.765
	s67.765-30.399,67.765-67.765S293.365,150.588,256,150.588z"/>
<circle style="fill:#1E2E3B;" cx="256" cy="218.353" r="22.588"/>
<path style="fill:#3C5D76;" d="M210.824,331.294c0,24.949,20.227,45.176,45.176,45.176l0,0c24.949,0,45.176-20.227,45.176-45.176
	H210.824z"/>
<path style="fill:#1E2E3B;" d="M256,331.294v45.176c24.949,0,45.176-20.227,45.176-45.176H256z"/>
<g>
</g>
<g>
</g>
<g>
</g>
<g>
</g>
<g>
</g>
<g>
</g>
<g>
</g>
<g>
</g>
<g>
</g>
<g>
</g>
<g>
</g>
<g>
</g>
<g>
</g>
<g>
</g>
<g>
</g>
</svg>
