<?xml version="1.0" encoding="iso-8859-1"?>
<!-- Generator: Adobe Illustrator 19.0.0, SVG Export Plug-In . SVG Version: 6.00 Build 0)  -->
<svg version="1.1" id="Layer_1" xmlns="http://www.w3.org/2000/svg" xmlns:xlink="http://www.w3.org/1999/xlink" x="0px" y="0px"
	 viewBox="0 0 512 512" style="enable-background:new 0 0 512 512;" xml:space="preserve">
<path style="fill:#FF5023;" d="M368.941,421.647c0,26.6-15.48,45.176-37.647,45.176c-20.759,0-37.647-16.888-37.647-37.647V323.765
	h-30.118h-15.059h-30.118v105.412c0,20.759-16.888,37.647-37.647,37.647s-37.647-16.888-37.647-37.647H97.882
	c0,45.669,37.155,82.824,82.824,82.824c33.384,0,62.196-19.864,75.294-48.384C269.097,492.136,297.91,512,331.294,512
	c47.217,0,82.824-38.843,82.824-90.353H368.941z"/>
<path style="fill:#BF3C1A;" d="M368.941,421.647c0,26.6-15.48,45.176-37.647,45.176c-20.759,0-37.647-16.888-37.647-37.647V323.765
	h-30.118H256v139.851C269.097,492.136,297.91,512,331.294,512c47.217,0,82.824-38.843,82.824-90.353H368.941z"/>
<path style="fill:#FF5023;" d="M301.176,45.176C301.176,20.226,280.949,0,256,0s-45.176,20.226-45.176,45.176
	c0,16.718,9.09,31.306,22.588,39.118v36.176h45.176V84.295C292.087,76.482,301.176,61.895,301.176,45.176z"/>
<path style="fill:#BF3C1A;" d="M256,0v120.471h22.588V84.295c13.499-7.813,22.588-22.398,22.588-39.118
	C301.176,20.226,280.949,0,256,0z"/>
<circle style="fill:#FF9811;" cx="256" cy="263.529" r="158.118"/>
<path style="fill:#FF5023;" d="M256,105.412c87.326,0,158.118,70.792,158.118,158.118S343.326,421.647,256,421.647"/>
<path style="fill:#FFFFFF;" d="M256,180.706c-37.365,0-67.765,30.399-67.765,67.765s30.399,67.765,67.765,67.765
	s67.765-30.399,67.765-67.765S293.365,180.706,256,180.706z"/>
<g>
	<circle style="fill:#2A2718;" cx="256" cy="248.471" r="22.588"/>
	<path style="fill:#2A2718;" d="M225.882,346.353c0,16.632,13.485,30.118,30.118,30.118l0,0c16.632,0,30.118-13.485,30.118-30.118
		H225.882z"/>
</g>
<g>
</g>
<g>
</g>
<g>
</g>
<g>
</g>
<g>
</g>
<g>
</g>
<g>
</g>
<g>
</g>
<g>
</g>
<g>
</g>
<g>
</g>
<g>
</g>
<g>
</g>
<g>
</g>
<g>
</g>
</svg>
